# Blender v2.79 (sub 0) OBJ File: 'shiggyface.blend'
# www.blender.org
o Plane_Plane.001
v 0.447039 -1.815344 1.033701
v 1.140513 -1.377144 0.653470
v 0.884995 -1.606379 0.829357
v 1.286131 -1.161698 0.517023
v 1.404350 -0.703339 0.408201
v 1.490789 -0.063419 0.311036
v 1.477373 0.647106 0.304440
v 1.362831 1.245230 0.395650
v 0.200376 -0.609040 1.558475
v 0.239797 -0.477621 1.528967
v 0.175973 -0.751711 1.708928
v 0.537913 1.546972 1.217294
v 1.012818 1.424696 0.911024
v 0.144051 -0.803590 1.780994
v 0.113324 -0.972631 1.799727
v 0.688816 1.231624 1.413886
v 0.746086 0.629196 1.464862
v 0.752794 0.094755 1.214830
v 1.025824 1.238427 1.150206
v 1.111730 0.676140 1.151990
v 1.179848 0.096191 0.970397
v 0.831753 -0.718121 1.217390
v 0.798212 -0.866892 1.297658
v 1.127730 -0.788080 1.049740
v 1.077420 -0.995818 1.105002
v 0.368052 -0.818559 1.563321
v 1.025709 -1.233426 1.137329
v 0.722683 -1.159488 1.433378
v 0.222171 -1.827729 1.073882
v 0.177578 -1.801640 1.311756
v 0.369902 -1.699701 1.357321
v 0.587092 -1.586179 1.341485
v 0.300946 -1.482657 1.514297
v 0.192351 -1.600536 1.501636
v 0.274078 -1.079096 1.713265
v 0.220166 -1.139739 1.740090
v 0.175851 -1.437399 1.644400
v 0.096189 -1.703315 1.444029
v 1.307615 1.241829 0.772928
v 1.419577 -0.025384 0.703787
v 1.407838 0.647437 0.690011
v 1.369648 -0.668359 0.745892
v 1.259814 -1.097235 0.811012
v 1.156274 -1.307211 0.895400
v 0.199875 -1.814685 1.192819
v 0.530505 -1.766454 1.150023
v 0.820472 -1.583295 1.040045
v 1.324126 -0.586485 -0.163195
v 0.253159 1.587709 1.333869
v 0.481734 -0.730392 1.475560
v 0.518388 -0.590807 1.327840
v 0.354288 0.071366 1.485850
v 0.351131 0.587907 1.740827
v 0.324178 1.224422 1.589697
v 1.122288 -0.463202 -0.570094
v 1.184235 -0.059259 -0.499052
v 1.385072 -0.049135 -0.233490
v 1.069061 -0.896263 -0.470262
v 1.205487 -1.148146 0.023419
v 1.026476 -1.450354 0.247048
v 0.333626 -1.771381 0.451178
v 0.280296 -1.582515 0.053579
v 0.241283 -1.831434 0.840579
v 0.787768 -1.649716 0.483511
v 0.433041 -1.232959 -0.353353
v 0.780618 -1.159214 -0.372259
v 0.670771 -1.537267 0.098218
v -0.431465 -1.792491 1.033701
v -1.126277 -1.362018 0.653470
v 0.000004 -1.853135 1.114063
v -0.914405 -1.570822 0.829357
v -1.256950 -1.118809 0.517023
v -1.393898 -0.700223 0.408201
v -1.490781 -0.063419 0.311036
v -1.477365 0.647106 0.304440
v -1.362824 1.245230 0.395650
v 0.000004 -1.811588 1.374195
v 0.000004 -1.609831 1.549631
v 0.000004 -1.501371 1.638568
v 0.000004 -1.379134 1.758815
v 0.000004 -1.061700 1.816675
v 0.000004 -0.903291 1.881902
v 0.000004 -0.773247 1.881902
v 0.000004 -0.698702 1.779607
v 0.000004 -0.503021 1.677108
v 0.000004 -0.270067 1.695744
v 0.000004 0.102659 1.781378
v 0.000004 0.649747 1.795404
v 0.000004 1.623925 1.362263
v -0.200368 -0.609040 1.558475
v -0.239790 -0.477621 1.528967
v -0.175965 -0.751711 1.708928
v 0.000004 -1.841740 0.840579
v 0.000004 -1.776942 0.451178
v 0.000004 -1.609531 0.053579
v 0.000004 -1.256842 -0.345619
v -0.537906 1.546972 1.217294
v -1.012811 1.424696 0.911024
v -0.144043 -0.803590 1.780994
v -0.113317 -0.972631 1.799727
v 0.000004 1.218018 1.663205
v -0.688808 1.231624 1.413886
v -0.746079 0.648427 1.389466
v -0.752787 0.094755 1.214830
v -1.025816 1.238427 1.150206
v -1.111722 0.647767 1.128954
v -1.179840 0.096191 0.970397
v -0.831745 -0.718121 1.217385
v -0.798205 -0.866892 1.297658
v -1.093548 -0.788080 1.049739
v -1.043238 -0.995818 1.105002
v -0.368045 -0.818559 1.563321
v -1.059885 -1.268326 1.083835
v -0.722675 -1.159488 1.433378
v -0.222164 -1.827729 1.073882
v -0.177570 -1.801640 1.311756
v -0.369894 -1.699701 1.357321
v -0.587085 -1.586179 1.341485
v -0.300939 -1.482657 1.514297
v -0.192343 -1.600536 1.501636
v -0.274071 -1.079096 1.713265
v -0.220159 -1.139739 1.740090
v -0.175844 -1.437399 1.644400
v -0.096182 -1.703315 1.444029
v 0.000004 -1.840893 1.244129
v -1.307607 1.241829 0.712932
v -1.419570 -0.025384 0.703787
v -1.407831 0.647437 0.690011
v -1.359196 -0.665244 0.745892
v -1.230634 -1.054346 0.811012
v -1.142038 -1.292086 0.895400
v -0.199867 -1.814685 1.192819
v -0.514932 -1.743600 1.150023
v -0.849882 -1.547739 1.040045
v -1.341207 -0.586485 -0.163195
v -0.253152 1.587709 1.333869
v -0.481727 -0.730392 1.475560
v -0.518381 -0.590807 1.327840
v -0.354281 0.071366 1.485850
v -0.351124 0.649126 1.668502
v -0.324171 1.224422 1.589697
v -1.122280 -0.463202 -0.570094
v -1.184228 -0.059259 -0.499052
v -1.385065 -0.049135 -0.233490
v -1.069054 -0.896263 -0.470262
v -1.222568 -1.148146 0.023419
v -1.038636 -1.453407 0.247048
v -0.342366 -1.780312 0.451178
v -0.280288 -1.582515 0.053579
v -0.241275 -1.831434 0.840579
v -0.770669 -1.667578 0.483511
v -0.433034 -1.232959 -0.353353
v -0.780611 -1.159214 -0.372259
v -0.670764 -1.537267 0.098218
v 1.451098 -0.393220 0.361113
v 1.153793 -0.330202 0.996660
v 0.792273 -0.297842 1.183130
v 0.123588 -0.184624 1.651291
v 1.398703 -0.356760 0.725487
v 0.438862 -0.262889 1.393795
v 1.152309 -0.267442 -0.535665
v 1.345381 -0.326074 -0.197261
v -1.418879 -0.388328 0.415270
v -1.119607 -0.370490 1.070930
v -0.792266 -0.297842 1.183130
v -0.119893 -0.187481 1.655172
v -1.365922 -0.351820 0.780492
v -0.436331 -0.245351 1.383719
v -1.153254 -0.261230 -0.478921
v -1.363136 -0.317810 -0.142690
vt 0.266035 0.424971
vt 0.295500 0.429650
vt 0.265968 0.464774
vt 0.289199 0.382488
vt 0.266091 0.391250
vt 0.285981 0.373349
vt 0.266113 0.378128
vt 0.266150 0.355736
vt 0.266195 0.328796
vt 0.282878 0.344252
vt 0.346998 0.527095
vt 0.382107 0.624037
vt 0.346359 0.625772
vt 0.306952 0.527792
vt 0.306707 0.627321
vt 0.303686 0.724824
vt 0.373628 0.723399
vt 0.340454 0.724560
vt 0.324668 0.770274
vt 0.296093 0.778326
vt 0.371387 0.746786
vt 0.400140 0.715294
vt 0.403793 0.712502
vt 0.354675 0.389946
vt 0.380292 0.343921
vt 0.385294 0.378870
vt 0.385785 0.331910
vt 0.384014 0.378870
vt 0.379257 0.343921
vt 0.357529 0.357210
vt 0.320455 0.410959
vt 0.316764 0.386971
vt 0.354529 0.389946
vt 0.388962 0.448582
vt 0.350193 0.458396
vt 0.415716 0.505821
vt 0.400156 0.454552
vt 0.283638 0.479444
vt 0.265862 0.528708
vt 0.311842 0.469399
vt 0.345958 0.527095
vt 0.302466 0.527792
vt 0.308709 0.371658
vt 0.291545 0.407236
vt 0.320118 0.386971
vt 0.357653 0.357210
vt 0.368098 0.362385
vt 0.380201 0.351621
vt 0.344618 0.314556
vt 0.324611 0.301430
vt 0.347297 0.304477
vt 0.330780 0.231565
vt 0.324522 0.202246
vt 0.354234 0.234682
vt 0.308124 0.211721
vt 0.301033 0.247939
vt 0.289629 0.227519
vt 0.269398 0.225392
vt 0.269368 0.243540
vt 0.295836 0.317441
vt 0.293869 0.315955
vt 0.283177 0.324098
vt 0.299358 0.326507
vt 0.262646 0.333128
vt 0.287947 0.254747
vt 0.269460 0.188292
vt 0.287999 0.194470
vt 0.269454 0.192050
vt 0.290238 0.193400
vt 0.269334 0.263992
vt 0.279520 0.210162
vt 0.315670 0.194956
vt 0.292458 0.192341
vt 0.269461 0.187490
vt 0.360209 0.232522
vt 0.353078 0.302364
vt 0.377659 0.341611
vt 0.400204 0.448825
vt 0.411230 0.505821
vt 0.396903 0.454552
vt 0.387046 0.322812
vt 0.400450 0.376924
vt 0.388699 0.518186
vt 0.409816 0.616655
vt 0.414681 0.614554
vt 0.416215 0.499106
vt 0.265544 0.718906
vt 0.265434 0.784626
vt 0.265705 0.622637
vt 0.399398 0.456507
vt 0.377085 0.434914
vt 0.379999 0.465777
vt 0.399608 0.414872
vt 0.377031 0.327500
vt 0.391940 0.384414
vt 0.372521 0.366303
vt 0.364961 0.332322
vt 0.269429 0.206673
vt 0.297346 0.242378
vt 0.303201 0.207761
vt 0.294222 0.193984
vt 0.269454 0.192121
vt 0.342463 0.297980
vt 0.349236 0.228038
vt 0.266230 0.308099
vt 0.292269 0.312005
vt 0.262688 0.307513
vt 0.345501 0.324111
vt 0.330060 0.319148
vt 0.336414 0.249686
vt 0.312488 0.312152
vt 0.240752 0.431631
vt 0.247209 0.385517
vt 0.250457 0.376600
vt 0.253656 0.348142
vt 0.153292 0.624863
vt 0.188933 0.528661
vt 0.189263 0.626590
vt 0.228978 0.528857
vt 0.228910 0.628478
vt 0.194842 0.723362
vt 0.161671 0.721915
vt 0.210458 0.764840
vt 0.231608 0.723965
vt 0.239007 0.772990
vt 0.163817 0.741407
vt 0.135452 0.709778
vt 0.181494 0.390238
vt 0.158958 0.333783
vt 0.184674 0.367460
vt 0.145921 0.338654
vt 0.152407 0.378768
vt 0.126307 0.393150
vt 0.212798 0.411771
vt 0.216276 0.389617
vt 0.149596 0.449170
vt 0.185260 0.459430
vt 0.126399 0.452360
vt 0.146942 0.519068
vt 0.124772 0.506758
vt 0.252826 0.480019
vt 0.220907 0.470681
vt 0.244781 0.409724
vt 0.227735 0.374732
vt 0.192015 0.318491
vt 0.145594 0.356853
vt 0.199938 0.305770
vt 0.228660 0.321715
vt 0.174290 0.314336
vt 0.152827 0.359301
vt 0.215962 0.205649
vt 0.207996 0.230984
vt 0.181480 0.239934
vt 0.230718 0.211355
vt 0.237688 0.247639
vt 0.249161 0.227328
vt 0.259327 0.210066
vt 0.242760 0.320335
vt 0.241297 0.328351
vt 0.237236 0.330615
vt 0.250752 0.254571
vt 0.250901 0.194294
vt 0.248665 0.193204
vt 0.224832 0.198426
vt 0.246449 0.192123
vt 0.175535 0.237671
vt 0.168539 0.312169
vt 0.148158 0.347055
vt 0.144678 0.329663
vt 0.123044 0.446513
vt 0.119810 0.499926
vt 0.137744 0.388246
vt 0.125820 0.613645
vt 0.120962 0.611543
vt 0.131526 0.707538
vt 0.155829 0.467596
vt 0.136695 0.414988
vt 0.134429 0.458358
vt 0.153502 0.327465
vt 0.163941 0.368891
vt 0.159151 0.435454
vt 0.158305 0.335146
vt 0.241394 0.242114
vt 0.269377 0.237796
vt 0.244679 0.193750
vt 0.183779 0.299374
vt 0.191290 0.224303
vt 0.232244 0.316426
vt 0.224153 0.316438
vt 0.234771 0.205946
vt 0.191100 0.327837
vt 0.194431 0.323065
vt 0.202302 0.249051
vt 0.403341 0.500694
vt 0.383106 0.498680
vt 0.315585 0.469399
vt 0.404008 0.376924
vt 0.386158 0.378870
vt 0.391247 0.518186
vt 0.132678 0.501655
vt 0.357579 0.357210
vt 0.323516 0.410959
vt 0.152919 0.499816
vt 0.000077 0.000077
vt 0.594940 0.000077
vt 0.463991 0.999923
vt 0.000000 0.000000
vt 0.000000 0.000000
vt 0.000000 0.000000
vn 0.0000 0.2107 0.9775
vn 0.5356 0.0282 0.8440
vn 0.0050 -0.1826 0.9832
vn 0.5759 0.5092 0.6395
vn 0.0000 0.6341 0.7732
vn 0.5829 0.3285 0.7431
vn 0.0000 0.4315 0.9021
vn 0.0000 -0.1359 0.9907
vn 0.0000 -0.2398 0.9708
vn 0.4419 -0.1090 0.8904
vn 0.5386 -0.1692 0.8254
vn 0.7285 -0.0421 0.6837
vn 0.5968 -0.1004 0.7961
vn 0.5894 -0.2109 0.7798
vn 0.4241 -0.0342 0.9050
vn 0.3133 0.3992 0.8617
vn 0.6537 0.3994 0.6428
vn 0.4845 0.3761 0.7898
vn 0.4162 0.6202 0.6649
vn 0.2684 0.5882 0.7629
vn 0.5714 0.6999 0.4284
vn 0.8218 0.4714 0.3198
vn 0.9329 0.3281 0.1485
vn 0.4865 0.1932 0.8520
vn 0.7112 -0.0152 0.7028
vn 0.6821 0.0151 0.7310
vn 0.9041 -0.2541 0.3435
vn 0.5824 0.2463 0.7747
vn 0.5506 0.2466 0.7975
vn 0.5412 0.3305 0.7731
vn 0.6232 0.0310 0.7815
vn 0.4730 0.0314 0.8805
vn 0.9027 -0.0080 0.4301
vn 0.9049 -0.0481 0.4229
vn 0.5424 -0.1333 0.8294
vn -0.0245 -0.1939 0.9807
vn 0.5673 -0.0527 0.8218
vn 0.5524 0.2947 0.7797
vn 0.5222 0.2891 0.8023
vn 0.7308 -0.2531 0.6340
vn 0.8237 -0.4538 0.3399
vn 0.5927 -0.0712 0.8022
vn 0.5049 -0.5271 0.6835
vn 0.6229 -0.6881 0.3721
vn 0.4333 -0.8515 0.2951
vn 0.3153 -0.7060 0.6341
vn 0.4578 -0.4317 0.7772
vn 0.3105 -0.5808 0.7524
vn 0.0000 -0.6399 0.7685
vn 0.0000 -0.6661 0.7458
vn 0.4302 -0.1978 0.8808
vn 0.4354 -0.4840 0.7590
vn 0.5442 0.0435 0.8378
vn 0.0000 -0.4454 0.8953
vn 0.0000 -0.9886 0.1505
vn 0.2731 -0.8815 0.3851
vn 0.0000 -0.8460 0.5331
vn 0.1932 -0.9625 0.1905
vn 0.2238 -0.6563 0.7205
vn 0.2638 -0.9625 0.0628
vn 0.0847 -0.9943 0.0641
vn 0.0000 -0.9991 0.0407
vn 0.5911 -0.7996 0.1059
vn 0.7707 -0.6365 0.0285
vn 0.9918 -0.1267 -0.0132
vn 0.9097 -0.4153 -0.0072
vn 0.9195 -0.1019 0.3797
vn 0.6565 -0.0491 0.7527
vn 0.9298 0.0542 0.3640
vn 0.9805 0.0861 0.1765
vn 0.9959 -0.0793 0.0431
vn -0.0132 0.3956 0.9183
vn 0.0000 0.5956 0.8033
vn -0.0822 0.1084 0.9907
vn 0.9231 -0.1307 -0.3617
vn 0.8611 -0.1350 -0.4901
vn 0.8644 -0.0445 -0.5008
vn 0.9225 -0.1997 -0.3302
vn 0.7803 -0.5188 -0.3492
vn 0.9795 -0.1999 -0.0264
vn 0.7534 -0.4485 -0.4809
vn 0.5960 -0.7498 -0.2875
vn 0.0081 -0.9578 -0.2871
vn 0.1005 -0.8379 -0.5365
vn 0.1405 -0.9536 -0.2664
vn 0.1063 -0.9910 -0.0812
vn 0.0000 -0.9962 -0.0873
vn 0.4248 -0.8885 -0.1734
vn 0.0000 -0.7597 -0.6503
vn 0.0000 -0.8494 -0.5277
vn 0.3611 -0.7537 -0.5490
vn 0.2694 -0.8331 -0.4830
vn 0.1004 -0.7778 -0.6204
vn -0.5423 0.0366 0.8394
vn -0.5759 0.5092 0.6395
vn -0.5829 0.3285 0.7431
vn -0.4419 -0.1090 0.8904
vn -0.7028 -0.0344 0.7105
vn -0.5508 -0.1919 0.8123
vn -0.5785 -0.1062 0.8087
vn -0.5977 -0.1644 0.7847
vn -0.4664 -0.0226 0.8843
vn -0.5061 0.3478 0.7892
vn -0.6732 0.3694 0.6405
vn -0.4162 0.6202 0.6649
vn -0.3019 0.3753 0.8764
vn -0.2684 0.5882 0.7629
vn -0.6018 0.6722 0.4311
vn -0.8271 0.4710 0.3065
vn -0.4912 0.1604 0.8561
vn -0.7528 0.0261 0.6577
vn -0.5919 0.2605 0.7627
vn -0.9059 -0.2368 0.3509
vn -0.6916 -0.0501 0.7205
vn -0.9180 -0.1458 0.3688
vn -0.5474 0.2558 0.7968
vn -0.5412 0.3305 0.7731
vn -0.6326 0.0298 0.7739
vn -0.4695 0.0905 0.8782
vn -0.8943 -0.0491 0.4446
vn -0.6937 -0.0589 0.7178
vn -0.9101 -0.0201 0.4140
vn -0.5420 -0.1384 0.8289
vn -0.5694 -0.0515 0.8204
vn -0.5222 0.2891 0.8023
vn -0.5524 0.2947 0.7797
vn -0.5891 -0.0771 0.8044
vn -0.8697 -0.3988 0.2906
vn -0.5034 -0.5562 0.6612
vn -0.4578 -0.4317 0.7772
vn -0.6158 -0.7046 0.3525
vn -0.7988 -0.2722 0.5365
vn -0.4349 -0.8643 0.2527
vn -0.3353 -0.7199 0.6077
vn -0.3105 -0.5808 0.7524
vn -0.2238 -0.6563 0.7205
vn -0.4302 -0.1978 0.8808
vn -0.4354 -0.4840 0.7590
vn -0.5442 0.0435 0.8378
vn -0.2731 -0.8815 0.3851
vn -0.2224 -0.9584 0.1791
vn -0.3075 -0.9480 0.0817
vn -0.1435 -0.9870 0.0720
vn -0.6177 -0.7762 0.1262
vn -0.8143 -0.5792 0.0373
vn -0.9195 -0.3906 0.0438
vn -0.9917 -0.1246 0.0323
vn -0.9903 -0.1281 0.0532
vn -0.9817 -0.1906 -0.0002
vn -0.9225 0.0692 0.3798
vn -0.9805 0.0861 0.1765
vn -0.9315 0.3230 0.1668
vn -0.8450 -0.0805 -0.5286
vn -0.9311 -0.1556 -0.3298
vn -0.9359 -0.1320 -0.3265
vn -0.7943 -0.5201 -0.3140
vn -0.7360 -0.4520 -0.5038
vn -0.8707 -0.0637 -0.4877
vn -0.6254 -0.7377 -0.2545
vn -0.0976 -0.8347 -0.5419
vn -0.1262 -0.9904 -0.0554
vn -0.4287 -0.8907 -0.1506
vn -0.1004 -0.7778 -0.6204
vn -0.1296 -0.9554 -0.2653
vn -0.3534 -0.7527 -0.5554
vn -0.2630 -0.8286 -0.4941
vn 0.8952 -0.1815 -0.4071
vn 0.8379 -0.1007 -0.5364
vn -0.8884 -0.1971 -0.4145
vn -0.7879 -0.1795 -0.5890
vn 0.4927 -0.1220 -0.8616
vn 0.3150 0.0449 -0.9480
s 1
f 85/1/1 10/2/2 86/3/3
f 11/4/4 85/1/1 84/5/5
f 14/6/6 84/5/5 83/7/7
f 82/8/8 14/6/6 83/7/7
f 81/9/9 15/10/10 82/8/8
f 18/11/11 20/12/12 17/13/13
f 52/14/14 17/13/13 53/15/15
f 17/13/13 54/16/16 53/15/15
f 17/13/13 19/17/17 16/18/18
f 54/16/16 12/19/19 49/20/20
f 12/19/19 19/17/17 13/21/21
f 13/21/21 39/22/22 8/23/23
f 22/24/24 25/25/25 24/26/26
f 43/27/27 24/28/26 25/29/25
f 23/30/28 51/31/29 50/32/30
f 22/33/24 156/34/31 157/35/32
f 40/36/33 156/34/31 159/37/34
f 86/3/3 158/38/35 87/39/36
f 160/40/37 18/41/11 52/42/14
f 11/4/4 26/43/38 9/44/39
f 26/43/38 50/45/30 9/44/39
f 23/46/28 27/47/40 25/29/25
f 44/48/41 25/29/25 27/47/40
f 28/49/42 32/50/43 27/47/40
f 47/51/44 27/47/40 32/50/43
f 32/52/43 46/53/45 47/54/44
f 31/55/46 33/56/47 34/57/48
f 78/58/49 34/57/48 79/59/50
f 33/60/47 36/61/51 37/62/52
f 35/63/53 14/6/6 15/10/10
f 26/43/38 28/49/42 23/46/28
f 14/6/6 26/43/38 11/4/4
f 80/64/54 36/61/51 81/9/9
f 37/65/52 34/57/48 33/56/47
f 36/61/51 28/49/42 35/63/53
f 36/61/51 15/10/10 81/9/9
f 125/66/55 30/67/56 77/68/57
f 31/55/46 45/69/58 46/53/45
f 80/70/54 79/59/50 37/65/52
f 38/71/59 77/68/57 30/67/56
f 38/71/59 31/55/46 34/57/48
f 77/68/57 38/71/59 78/58/49
f 1/72/60 45/69/58 29/73/61
f 70/74/62 45/69/58 125/66/55
f 47/54/44 1/72/60 3/75/63
f 3/76/63 44/48/41 47/51/44
f 2/77/64 43/27/27 44/48/41
f 155/78/65 40/79/33 159/80/34
f 4/81/66 42/82/67 43/27/27
f 21/83/68 41/84/69 20/12/12
f 20/12/12 39/22/22 19/17/17
f 7/85/70 40/79/33 6/86/71
f 8/23/23 41/84/69 7/85/70
f 158/38/35 52/14/14 87/39/36
f 50/45/30 10/2/2 9/44/39
f 101/87/72 49/20/20 89/88/73
f 88/89/74 54/16/16 101/87/72
f 87/39/36 53/15/15 88/89/74
f 162/90/75 55/91/76 161/92/77
f 155/78/65 48/93/78 162/90/75
f 59/94/79 5/95/80 4/81/66
f 58/96/81 48/93/78 59/94/79
f 60/97/82 4/81/66 2/77/64
f 94/98/83 62/99/84 61/100/85
f 63/101/86 94/98/83 61/100/85
f 93/102/87 29/73/61 70/74/62
f 1/72/60 29/73/61 63/101/86
f 64/103/88 2/77/64 3/76/63
f 1/72/60 64/104/88 3/75/63
f 96/105/89 62/106/84 95/107/90
f 63/101/86 61/100/85 64/104/88
f 66/108/91 59/94/79 60/97/82
f 64/103/88 67/109/92 60/97/82
f 66/108/91 60/97/82 67/109/92
f 67/110/92 61/100/85 62/99/84
f 65/111/93 67/109/92 62/106/84
f 91/112/94 85/1/1 86/3/3
f 85/1/1 92/113/95 84/5/5
f 84/5/5 99/114/96 83/7/7
f 82/8/8 99/114/96 100/115/97
f 81/9/9 82/8/8 100/115/97
f 106/116/98 104/117/99 103/118/100
f 139/119/101 103/118/100 104/117/99
f 140/120/102 102/121/103 103/118/100
f 105/122/104 103/118/100 102/121/103
f 97/123/105 141/124/106 136/125/107
f 97/123/105 105/122/104 102/121/103
f 98/126/108 126/127/109 105/122/104
f 108/128/110 111/129/111 109/130/112
f 130/131/113 110/132/114 129/133/115
f 138/134/116 109/130/112 137/135/117
f 164/136/118 108/128/110 165/137/119
f 167/138/120 107/139/121 127/140/122
f 86/3/3 166/141/123 91/112/94
f 168/142/124 104/117/99 165/137/119
f 92/113/95 90/143/125 112/144/126
f 137/135/117 112/144/126 90/143/125
f 111/129/111 114/145/127 109/130/112
f 131/146/128 111/129/111 130/131/113
f 114/145/127 118/147/129 119/148/130
f 134/149/131 113/150/132 131/146/128
f 133/151/133 118/152/129 134/153/131
f 117/154/134 119/155/130 118/152/129
f 78/58/49 120/156/135 124/157/136
f 122/158/137 119/148/130 123/159/138
f 99/114/96 121/160/139 100/115/97
f 114/145/127 112/144/126 109/130/112
f 99/114/96 92/113/95 112/144/126
f 80/64/54 122/158/137 123/159/138
f 120/156/135 123/161/138 119/155/130
f 122/158/137 121/160/139 114/145/127
f 100/115/97 122/158/137 81/9/9
f 125/66/55 116/162/140 132/163/141
f 132/163/141 117/154/134 133/151/133
f 80/70/54 123/161/138 79/59/50
f 124/157/136 116/162/140 77/68/57
f 124/157/136 117/154/134 116/162/140
f 77/68/57 78/58/49 124/157/136
f 68/164/142 132/163/141 133/151/133
f 70/74/62 132/163/141 115/165/143
f 68/164/142 134/153/131 71/166/144
f 71/167/144 131/146/128 69/168/145
f 69/168/145 130/131/113 72/169/146
f 163/170/147 127/140/122 74/171/148
f 72/169/146 129/133/115 73/172/149
f 107/139/121 128/173/150 127/140/122
f 126/127/109 106/116/98 105/122/104
f 75/174/151 127/140/122 128/173/150
f 76/175/152 128/173/150 126/127/109
f 166/141/123 139/119/101 168/142/124
f 91/112/94 137/135/117 90/143/125
f 136/125/107 101/87/72 89/88/73
f 101/87/72 140/120/102 88/89/74
f 87/39/36 140/120/102 139/119/101
f 169/176/153 135/177/154 170/178/155
f 163/170/147 135/177/154 73/172/149
f 146/179/156 73/172/149 135/177/154
f 145/180/157 135/177/154 142/181/158
f 147/182/159 72/169/146 146/179/156
f 94/98/83 149/183/160 95/184/90
f 150/185/161 94/98/83 93/102/87
f 93/102/87 115/165/143 150/185/161
f 68/164/142 150/185/161 115/165/143
f 151/186/162 69/168/145 147/182/159
f 151/187/162 68/164/142 71/166/144
f 96/105/89 149/188/160 152/189/163
f 150/185/161 151/187/162 148/190/164
f 153/191/165 146/179/156 145/180/157
f 151/186/162 147/182/159 154/192/166
f 153/191/165 154/192/166 147/182/159
f 148/190/164 154/193/166 149/183/160
f 154/192/166 152/189/163 149/188/160
f 125/66/55 45/69/58 30/67/56
f 70/74/62 29/73/61 45/69/58
f 63/101/86 93/102/87 94/98/83
f 93/102/87 63/101/86 29/73/61
f 125/66/55 77/68/57 116/162/140
f 70/74/62 125/66/55 132/163/141
f 150/185/161 148/190/164 94/98/83
f 93/102/87 70/74/62 115/165/143
f 6/86/71 162/90/75 57/194/167
f 162/90/75 56/195/168 57/194/167
f 10/2/2 160/196/37 158/38/35
f 5/95/80 159/80/34 42/82/67
f 51/31/29 157/35/32 160/40/37
f 42/197/67 156/34/31 24/198/26
f 157/35/32 21/199/68 18/41/11
f 74/171/148 170/178/155 163/170/147
f 144/200/169 169/176/153 170/178/155
f 91/112/94 168/142/124 138/134/116
f 129/133/115 163/170/147 73/172/149
f 138/134/116 165/137/119 108/128/110
f 129/133/115 164/136/118 167/138/120
f 107/139/121 165/137/119 104/117/99
f 85/1/1 9/44/39 10/2/2
f 11/4/4 9/44/39 85/1/1
f 14/6/6 11/4/4 84/5/5
f 82/8/8 15/10/10 14/6/6
f 18/11/11 21/83/68 20/12/12
f 52/14/14 18/11/11 17/13/13
f 17/13/13 16/18/18 54/16/16
f 17/13/13 20/12/12 19/17/17
f 54/16/16 16/18/18 12/19/19
f 12/19/19 16/18/18 19/17/17
f 13/21/21 19/17/17 39/22/22
f 22/24/24 23/201/28 25/25/25
f 43/27/27 42/82/67 24/28/26
f 23/30/28 22/33/24 51/31/29
f 22/33/24 24/198/26 156/34/31
f 40/36/33 21/199/68 156/34/31
f 86/3/3 10/2/2 158/38/35
f 160/40/37 157/35/32 18/41/11
f 26/43/38 23/46/28 50/45/30
f 23/46/28 28/49/42 27/47/40
f 44/48/41 43/27/27 25/29/25
f 28/49/42 33/60/47 32/50/43
f 47/51/44 44/48/41 27/47/40
f 32/52/43 31/55/46 46/53/45
f 31/55/46 32/52/43 33/56/47
f 78/58/49 38/71/59 34/57/48
f 33/60/47 28/49/42 36/61/51
f 35/63/53 26/43/38 14/6/6
f 26/43/38 35/63/53 28/49/42
f 80/64/54 37/62/52 36/61/51
f 37/65/52 79/59/50 34/57/48
f 36/61/51 35/63/53 15/10/10
f 31/55/46 30/67/56 45/69/58
f 38/71/59 30/67/56 31/55/46
f 1/72/60 46/53/45 45/69/58
f 47/54/44 46/53/45 1/72/60
f 3/76/63 2/77/64 44/48/41
f 2/77/64 4/81/66 43/27/27
f 155/78/65 6/86/71 40/79/33
f 4/81/66 5/95/80 42/82/67
f 21/83/68 40/79/33 41/84/69
f 20/12/12 41/84/69 39/22/22
f 7/85/70 41/84/69 40/79/33
f 8/23/23 39/22/22 41/84/69
f 158/38/35 160/196/37 52/14/14
f 50/45/30 51/202/29 10/2/2
f 101/87/72 54/16/16 49/20/20
f 88/89/74 53/15/15 54/16/16
f 87/39/36 52/14/14 53/15/15
f 162/90/75 48/93/78 55/91/76
f 155/78/65 5/95/80 48/93/78
f 59/94/79 48/93/78 5/95/80
f 58/96/81 55/91/76 48/93/78
f 60/97/82 59/94/79 4/81/66
f 94/98/83 95/184/90 62/99/84
f 64/103/88 60/97/82 2/77/64
f 1/72/60 63/101/86 64/104/88
f 96/105/89 65/111/93 62/106/84
f 66/108/91 58/96/81 59/94/79
f 67/110/92 64/104/88 61/100/85
f 65/111/93 66/108/91 67/109/92
f 91/112/94 90/143/125 85/1/1
f 85/1/1 90/143/125 92/113/95
f 84/5/5 92/113/95 99/114/96
f 82/8/8 83/7/7 99/114/96
f 106/116/98 107/139/121 104/117/99
f 139/119/101 140/120/102 103/118/100
f 140/120/102 141/124/106 102/121/103
f 105/122/104 106/116/98 103/118/100
f 97/123/105 102/121/103 141/124/106
f 97/123/105 98/126/108 105/122/104
f 98/126/108 76/175/152 126/127/109
f 108/128/110 110/132/114 111/129/111
f 130/131/113 111/129/111 110/132/114
f 138/134/116 108/128/110 109/130/112
f 164/136/118 110/132/114 108/128/110
f 167/138/120 164/136/118 107/139/121
f 86/3/3 87/39/36 166/141/123
f 168/142/124 139/119/101 104/117/99
f 137/135/117 109/130/112 112/144/126
f 111/129/111 113/150/132 114/145/127
f 131/146/128 113/150/132 111/129/111
f 114/145/127 113/150/132 118/147/129
f 134/149/131 118/147/129 113/150/132
f 133/151/133 117/154/134 118/152/129
f 117/154/134 120/156/135 119/155/130
f 78/58/49 79/59/50 120/156/135
f 122/158/137 114/145/127 119/148/130
f 99/114/96 112/144/126 121/160/139
f 114/145/127 121/160/139 112/144/126
f 80/64/54 81/9/9 122/158/137
f 120/156/135 79/59/50 123/161/138
f 100/115/97 121/160/139 122/158/137
f 132/163/141 116/162/140 117/154/134
f 124/157/136 120/156/135 117/154/134
f 68/164/142 115/165/143 132/163/141
f 68/164/142 133/151/133 134/153/131
f 71/167/144 134/149/131 131/146/128
f 69/168/145 131/146/128 130/131/113
f 163/170/147 167/138/120 127/140/122
f 72/169/146 130/131/113 129/133/115
f 107/139/121 106/116/98 128/173/150
f 126/127/109 128/173/150 106/116/98
f 75/174/151 74/171/148 127/140/122
f 76/175/152 75/174/151 128/173/150
f 166/141/123 87/39/36 139/119/101
f 91/112/94 138/134/116 137/135/117
f 136/125/107 141/124/106 101/87/72
f 101/87/72 141/124/106 140/120/102
f 87/39/36 88/89/74 140/120/102
f 169/176/153 142/181/158 135/177/154
f 163/170/147 170/178/155 135/177/154
f 146/179/156 72/169/146 73/172/149
f 145/180/157 146/179/156 135/177/154
f 147/182/159 69/168/145 72/169/146
f 94/98/83 148/190/164 149/183/160
f 151/186/162 71/167/144 69/168/145
f 151/187/162 150/185/161 68/164/142
f 96/105/89 95/107/90 149/188/160
f 153/191/165 147/182/159 146/179/156
f 148/190/164 151/187/162 154/193/166
f 154/192/166 153/191/165 152/189/163
f 6/86/71 155/78/65 162/90/75
f 162/90/75 161/92/77 56/195/168
f 10/2/2 51/202/29 160/196/37
f 5/95/80 155/78/65 159/80/34
f 51/31/29 22/33/24 157/35/32
f 42/197/67 159/37/34 156/34/31
f 157/35/32 156/34/31 21/199/68
f 74/171/148 144/200/169 170/178/155
f 144/200/169 143/203/170 169/176/153
f 91/112/94 166/141/123 168/142/124
f 129/133/115 167/138/120 163/170/147
f 138/134/116 168/142/124 165/137/119
f 129/133/115 110/132/114 164/136/118
f 107/139/121 164/136/118 165/137/119
s off
f 164/204/171 107/205/171 104/206/171
f 164/207/172 104/208/172 165/209/172
