# Blender v2.79 (sub 0) OBJ File: 'shiggy - Copy.blend'
# www.blender.org
o Plane.004_Plane
v -1.277743 -4.535350 0.248269
v -1.254798 -3.670251 0.248268
v -1.277743 -5.465073 0.178910
v -1.346906 -6.063221 0.078635
v -1.421249 -6.991585 -0.061773
v -1.308739 -6.943305 0.458856
v -0.911133 -3.566016 0.719701
v -0.922606 -4.639532 0.872102
v -1.058715 -5.550176 0.845856
v -1.116707 -6.091952 0.844154
v -1.360605 -4.488890 -0.225235
v -1.254798 -3.636432 -0.088676
v -1.443466 -5.475388 -0.367164
v -1.512629 -6.120368 -0.434131
v -1.586972 -6.914922 -0.602802
v -1.180000 -3.277130 0.223180
v -0.901682 -3.099062 0.644511
v -1.180000 -3.282878 -0.109901
v -0.500300 -4.691622 1.285120
v -0.500300 -5.573449 1.306892
v -0.517591 -6.120988 1.393978
v -0.510481 -6.921811 1.502836
v -0.494564 -3.513898 1.089176
v -0.489838 -3.048253 0.943843
v -0.327057 -2.757446 0.998111
v -0.410373 -2.277828 0.758666
v -0.471169 -2.031421 0.327454
v -0.424705 -1.942757 -0.202660
v -0.809264 -2.106999 -0.312154
v -0.823670 -2.096050 -0.049367
v -0.982896 -2.391685 0.246267
v -1.030663 -2.643522 0.454307
v -0.756314 -6.116998 -0.732534
v -0.721733 -5.451361 -0.661228
v -0.680302 -4.473077 -0.598312
v -0.627399 -3.632975 -0.688106
v -0.986486 -6.849777 -1.031767
v -0.590000 -3.026586 -0.758984
v -1.025127 -2.993817 0.675605
v -0.411835 -1.972535 -0.055688
v -0.727033 -2.211553 0.286861
v -0.720518 -2.460675 0.606486
v -0.706766 -2.782127 0.824964
v -0.623471 -2.914011 0.774070
v -0.878404 -2.703141 -0.676675
v -0.847803 -3.176297 -0.888679
v -0.319860 -3.176297 -1.032696
v -0.871789 -2.543231 -0.809170
v -0.326276 -2.461110 -0.805460
v -0.266406 -2.911515 0.703424
v -0.315318 -2.620504 0.467793
v -0.938220 -3.040824 0.612353
v -0.873219 -2.700974 0.392161
v -0.838334 -2.168640 -0.555686
v -0.325976 -2.042578 -0.471645
v -0.899748 -2.423217 0.210747
v -0.421005 -2.238716 0.196513
v -0.411835 -2.064798 -0.055688
v -0.823670 -2.277539 -0.049367
v -0.809264 -2.210804 -0.312154
v -0.832243 -2.347189 -0.520669
v -0.862635 -2.613083 -0.739422
v -0.822655 -3.193006 -0.773118
v -0.325538 -3.222193 -0.939140
v 1.277743 -4.535350 0.248269
v 1.254798 -3.670251 0.248268
v 0.000000 -3.461780 1.162677
v 0.000000 -4.743712 1.402165
v 1.277743 -5.465073 0.178910
v 0.000000 -5.596722 1.445708
v 1.346906 -6.063221 0.078635
v 0.000000 -6.150024 1.554566
v 1.421249 -6.991585 -0.061773
v 1.308739 -6.943305 0.458856
v 0.000000 -6.896794 1.685195
v 0.911133 -3.566016 0.719701
v 0.922606 -4.639532 0.872102
v 1.058715 -5.550176 0.845856
v 1.116707 -6.091952 0.844154
v 1.360605 -4.488890 -0.225235
v 1.254798 -3.636432 -0.088676
v 1.443466 -5.475388 -0.367164
v 1.512629 -6.120368 -0.434131
v 1.586972 -6.914922 -0.602802
v 0.000000 -4.341743 -0.766599
v 0.000000 -3.650240 -0.864321
v 0.000000 -5.385891 -0.718512
v 0.000000 -6.113628 -0.789020
v 0.000000 -6.784633 -1.016735
v 1.180000 -3.277130 0.223180
v 0.000000 -3.304219 1.073485
v 0.901682 -3.099062 0.644511
v 1.180000 -3.282878 -0.109901
v 0.000000 -2.996384 -0.833345
v 0.500300 -4.691622 1.285120
v 0.500300 -5.573449 1.306892
v 0.517591 -6.120988 1.393978
v 0.510481 -6.921811 1.502836
v 0.494564 -3.513898 1.089176
v 0.489838 -3.048253 0.943843
v 0.327057 -2.757446 0.998111
v 0.410373 -2.277828 0.758666
v 0.471169 -2.031421 0.327454
v 0.424705 -1.942757 -0.202660
v 0.809264 -2.106999 -0.312154
v 0.823670 -2.096050 -0.049367
v 0.982896 -2.391685 0.246267
v 1.030663 -2.643522 0.454307
v 0.756314 -6.116998 -0.732534
v 0.721733 -5.451361 -0.661228
v 0.680302 -4.473077 -0.598312
v 0.627399 -3.632975 -0.688106
v 0.986486 -6.849777 -1.031767
v 0.590000 -3.026586 -0.758984
v 1.025127 -2.993817 0.675605
v 0.411835 -1.972535 -0.055688
v 0.727033 -2.211553 0.286861
v 0.720518 -2.460675 0.606486
v 0.706766 -2.782127 0.824964
v 0.623471 -2.914011 0.774070
v 0.878404 -2.703141 -0.676675
v 0.847803 -3.176297 -0.888679
v 0.319860 -3.176297 -1.032696
v 0.871789 -2.543231 -0.809170
v 0.326276 -2.461110 -0.805460
v 0.266406 -2.911515 0.703424
v 0.315318 -2.620504 0.467793
v 0.938220 -3.040824 0.612353
v 0.873219 -2.700974 0.392161
v 0.838334 -2.168640 -0.555686
v 0.325976 -2.042578 -0.471645
v 0.000000 -2.461110 -0.789286
v 0.000000 -2.042578 -0.471645
v 0.000000 -3.176297 -1.032696
v 0.899748 -2.423217 0.210747
v 0.421005 -2.238716 0.196513
v 0.411835 -2.064798 -0.055688
v 0.823670 -2.277539 -0.049367
v 0.809264 -2.210804 -0.312154
v 0.832243 -2.347189 -0.520669
v 0.862635 -2.613083 -0.739422
v 0.822655 -3.193006 -0.773118
v 0.325538 -3.222193 -0.939140
v 0.000000 -3.222193 -0.939140
vt 0.414497 0.165398
vt 0.629752 0.134638
vt 0.603009 0.213625
vt 0.272877 0.137916
vt 0.422751 0.081899
vt 0.257116 0.371882
vt 0.169369 0.248590
vt 0.257196 0.255886
vt 0.184212 0.117801
vt 0.407748 0.262158
vt 0.410075 0.379832
vt 0.583330 0.306697
vt 0.548562 0.397601
vt 0.056670 0.086056
vt 0.022811 0.296477
vt 0.156612 0.378253
vt 0.002671 0.380790
vt 0.407899 0.458797
vt 0.243442 0.465425
vt 0.134778 0.465649
vt 0.256053 0.594350
vt 0.161207 0.725624
vt 0.144246 0.602117
vt 0.558520 0.592307
vt 0.447587 0.699570
vt 0.419168 0.585955
vt 0.049489 0.745149
vt 0.009422 0.592060
vt 0.278632 0.711254
vt 0.681260 0.236337
vt 0.611564 0.406548
vt 0.548888 0.451959
vt 0.657497 0.597620
vt 0.560458 0.698196
vt 0.658546 0.143917
vt 0.196940 0.030273
vt 0.077205 0.000086
vt 0.286157 0.053518
vt 0.606659 0.459561
vt 0.000086 0.472870
vt 0.832380 0.451207
vt 0.910604 0.447368
vt 0.849366 0.491724
vt 0.817093 0.393100
vt 0.771431 0.411891
vt 0.822797 0.311466
vt 0.779235 0.344854
vt 0.733756 0.378690
vt 0.735265 0.299665
vt 0.695557 0.343758
vt 0.709036 0.274808
vt 0.782649 0.238900
vt 0.939027 0.493784
vt 0.916813 0.708458
vt 0.853064 0.596116
vt 0.938198 0.589165
vt 0.763946 0.160628
vt 0.734830 0.208727
vt 0.876979 0.267294
vt 0.668438 0.331502
vt 0.676829 0.342451
vt 0.712009 0.400504
vt 0.859192 0.529785
vt 0.997192 0.593611
vt 0.999914 0.495473
vt 0.969205 0.726602
vt 0.858481 0.370280
vt 0.900507 0.422086
vt 0.764335 0.426189
vt 0.898171 0.352405
vt 0.912140 0.408963
vt 0.803458 0.461556
vt 0.832849 0.500316
vt 0.834761 0.544672
vt 0.845409 0.680341
vt 0.838507 0.602025
vt 0.906999 0.724553
vt 0.962787 0.745150
vt 0.414497 0.165398
vt 0.603009 0.213625
vt 0.272877 0.137916
vt 0.169369 0.248590
vt 0.257116 0.371882
vt 0.257196 0.255886
vt 0.407748 0.262158
vt 0.410075 0.379832
vt 0.583330 0.306697
vt 0.548562 0.397601
vt 0.056670 0.086056
vt 0.184212 0.117801
vt 0.156612 0.378253
vt 0.022811 0.296477
vt 0.002671 0.380790
vt 0.407899 0.458797
vt 0.548888 0.451959
vt 0.243442 0.465425
vt 0.134778 0.465649
vt 0.256053 0.594350
vt 0.558520 0.592307
vt 0.144246 0.602117
vt 0.419168 0.585955
vt 0.681260 0.236337
vt 0.611564 0.406548
vt 0.657497 0.597620
vt 0.668438 0.331502
vt 0.606659 0.459561
vt 0.009422 0.592060
vt 0.910604 0.447368
vt 0.832380 0.451207
vt 0.849366 0.491724
vt 0.817093 0.393100
vt 0.771431 0.411891
vt 0.822797 0.311466
vt 0.858481 0.370280
vt 0.779235 0.344854
vt 0.733756 0.378690
vt 0.735265 0.299665
vt 0.695557 0.343758
vt 0.782649 0.238900
vt 0.709036 0.274808
vt 0.939027 0.493784
vt 0.859192 0.529785
vt 0.916813 0.708458
vt 0.853064 0.596116
vt 0.845409 0.680341
vt 0.763946 0.160628
vt 0.734830 0.208727
vt 0.876979 0.267294
vt 0.837261 0.212218
vt 0.676829 0.342451
vt 0.712009 0.400504
vt 0.938198 0.589165
vt 0.900507 0.422086
vt 0.764335 0.426189
vt 0.898171 0.352405
vt 0.912140 0.408963
vt 0.803458 0.461556
vt 0.832849 0.500316
vt 0.834761 0.544672
vt 0.838507 0.602025
vt 0.828608 0.690204
vt 0.906999 0.724553
vt 0.666118 0.693442
vt 0.837261 0.212218
vt 0.828608 0.690204
vt 0.000086 0.472870
vn -0.4556 0.0997 0.8846
vn 0.0000 0.3410 0.9400
vn -0.4185 0.2199 0.8812
vn -0.4641 0.0847 0.8817
vn 0.0000 0.1030 0.9947
vn -0.9484 0.0555 0.3122
vn -0.8387 0.0524 0.5421
vn -0.8240 0.0883 0.5596
vn -0.4873 0.1359 0.8626
vn -0.7901 0.0808 0.6076
vn -0.9361 0.0113 0.3514
vn -0.7491 0.1222 0.6510
vn -0.9393 0.1199 0.3213
vn -0.5400 0.0772 0.8381
vn -0.9276 0.0083 0.3735
vn -0.9561 0.0595 0.2868
vn -0.9655 0.0365 0.2578
vn -0.8939 0.1118 -0.4340
vn -0.8926 0.1344 -0.4303
vn -0.9134 0.1888 -0.3605
vn -0.2450 0.1062 -0.9637
vn 0.0000 0.2144 -0.9767
vn -0.1997 0.2662 -0.9430
vn -0.5014 -0.0622 -0.8629
vn 0.0000 -0.0834 -0.9965
vn -0.3797 0.0225 -0.9248
vn 0.0000 0.3518 -0.9361
vn -0.2807 0.3650 -0.8877
vn 0.0000 0.0582 -0.9983
vn -0.2102 0.5458 0.8111
vn -0.9254 0.1996 0.3221
vn -0.9116 0.1400 -0.3865
vn -0.4363 -0.0295 -0.8993
vn 0.0000 -0.0830 -0.9965
vn 0.0000 0.4068 0.9135
vn 0.0000 0.1686 0.9857
vn 0.0000 0.1723 0.9850
vn 0.0000 0.1182 0.9930
vn -0.8890 0.1303 -0.4388
vn -0.9385 0.1534 -0.3093
vn -0.7445 0.6632 0.0762
vn -0.2978 0.9465 -0.1244
vn -0.7714 0.6258 -0.1158
vn -0.5330 0.7412 0.4079
vn -0.9841 0.1372 -0.1126
vn 0.3251 0.7009 0.6348
vn -0.5965 0.5304 0.6023
vn -0.9975 0.0193 -0.0673
vn -0.4582 0.0321 0.8883
vn -0.8254 -0.4548 0.3344
vn -0.3033 -0.1146 0.9460
vn -0.0014 -0.3831 0.9237
vn -0.0866 0.7426 -0.6641
vn -0.0819 -0.3907 -0.9168
vn -0.7415 0.2787 -0.6103
vn -0.0010 0.4689 -0.8832
vn 0.4252 0.0386 0.9043
vn 0.9705 0.2369 0.0449
vn -0.6793 0.0949 0.7276
vn -0.8332 -0.2722 0.4813
vn -0.7134 -0.3540 -0.6048
vn -0.7038 0.5936 -0.3902
vn 0.0000 0.4721 -0.8815
vn 0.0000 0.6045 -0.7966
vn 0.0000 -0.3833 -0.9236
vn 0.2770 0.9153 0.2925
vn 0.1398 0.9418 0.3057
vn -0.4922 -0.6085 -0.6224
vn 0.9765 0.2070 0.0601
vn 0.9877 0.0479 0.1488
vn -0.9409 -0.0529 -0.3343
vn -0.9992 -0.0021 0.0389
vn -0.9913 -0.0071 0.1314
vn -0.7058 -0.5022 -0.4996
vn -0.9936 -0.0296 0.1090
vn -0.0661 -0.9038 -0.4227
vn 0.0000 -0.8978 -0.4404
vn 0.4556 0.0997 0.8846
vn 0.4185 0.2199 0.8812
vn 0.4641 0.0847 0.8817
vn 0.8387 0.0524 0.5421
vn 0.9484 0.0555 0.3122
vn 0.8240 0.0883 0.5596
vn 0.7901 0.0808 0.6076
vn 0.9361 0.0113 0.3514
vn 0.7491 0.1222 0.6510
vn 0.9393 0.1199 0.3213
vn 0.5400 0.0772 0.8381
vn 0.4873 0.1359 0.8626
vn 0.9561 0.0595 0.2868
vn 0.9276 0.0083 0.3735
vn 0.9655 0.0365 0.2578
vn 0.8939 0.1118 -0.4340
vn 0.9116 0.1400 -0.3865
vn 0.8926 0.1344 -0.4303
vn 0.9134 0.1888 -0.3605
vn 0.2450 0.1062 -0.9637
vn 0.5014 -0.0622 -0.8629
vn 0.1997 0.2662 -0.9430
vn 0.3797 0.0225 -0.9248
vn 0.2102 0.5458 0.8111
vn 0.9254 0.1996 0.3221
vn 0.4363 -0.0295 -0.8993
vn 0.6793 0.0949 0.7276
vn 0.8890 0.1303 -0.4388
vn 0.2807 0.3650 -0.8877
vn 0.2978 0.9465 -0.1244
vn 0.7445 0.6632 0.0762
vn 0.7714 0.6258 -0.1158
vn 0.5330 0.7412 0.4079
vn 0.9841 0.1372 -0.1126
vn -0.3251 0.7009 0.6348
vn -0.2770 0.9153 0.2925
vn 0.5965 0.5304 0.6023
vn 0.9975 0.0193 -0.0673
vn 0.4582 0.0321 0.8883
vn 0.8254 -0.4548 0.3344
vn 0.0014 -0.3831 0.9237
vn 0.3033 -0.1146 0.9460
vn 0.0866 0.7426 -0.6641
vn 0.7038 0.5936 -0.3902
vn 0.0819 -0.3907 -0.9168
vn 0.7415 0.2787 -0.6103
vn 0.7058 -0.5022 -0.4996
vn -0.4252 0.0386 0.9043
vn -0.9705 0.2369 0.0449
vn 0.8332 -0.2722 0.4813
vn 0.7134 -0.3540 -0.6048
vn 0.0010 0.4689 -0.8832
vn -0.1398 0.9418 0.3057
vn 0.4922 -0.6085 -0.6224
vn -0.9765 0.2070 0.0601
vn -0.9877 0.0479 0.1488
vn 0.9409 -0.0529 -0.3343
vn 0.9992 -0.0021 0.0389
vn 0.9913 -0.0071 0.1314
vn 0.9936 -0.0296 0.1090
vn 0.7090 -0.7032 0.0526
vn 0.0661 -0.9038 -0.4227
vn 0.0000 0.0473 -0.9989
vn -0.7090 -0.7032 0.0526
vn 0.9385 0.1534 -0.3093
s 1
f 19/1/1 67/2/2 23/3/3
f 20/4/4 68/5/5 19/1/1
f 3/6/6 10/7/7 9/8/8
f 20/4/4 10/7/7 21/9/9
f 3/6/6 8/10/10 1/11/11
f 1/11/11 7/12/12 2/13/13
f 10/7/7 22/14/14 21/9/9
f 6/15/15 4/16/16 5/17/17
f 2/13/13 11/18/18 1/11/11
f 13/19/19 4/16/16 3/6/6
f 14/20/20 5/17/17 4/16/16
f 11/18/18 3/6/6 1/11/11
f 34/21/21 88/22/22 33/23/23
f 36/24/24 85/25/25 35/26/26
f 33/23/23 89/27/27 37/28/28
f 35/26/26 87/29/29 34/21/21
f 24/30/30 7/12/12 23/3/3
f 16/31/31 12/32/32 2/13/13
f 38/33/33 86/34/34 36/24/24
f 7/12/12 16/31/31 2/13/13
f 91/35/35 23/3/3 67/2/2
f 72/36/36 22/14/14 75/37/37
f 70/38/38 21/9/9 72/36/36
f 9/8/8 19/1/1 8/10/10
f 8/10/10 23/3/3 7/12/12
f 18/39/39 36/24/24 12/32/32
f 11/18/18 34/21/21 13/19/19
f 14/20/20 37/28/28 15/40/40
f 12/32/32 35/26/26 11/18/18
f 13/19/19 33/23/23 14/20/20
f 30/41/41 28/42/42 29/43/43
f 41/44/44 30/41/41 31/45/45
f 26/46/46 41/44/44 42/47/47
f 42/47/47 31/45/45 32/48/48
f 43/49/49 32/48/48 39/50/50
f 43/49/49 44/51/51 25/52/52
f 26/46/46 43/49/49 25/52/52
f 55/53/53 29/43/43 28/42/42
f 47/54/54 48/55/55 49/56/56
f 25/57/52 50/58/57 91/35/35
f 44/51/51 50/58/57 25/52/52
f 24/30/30 91/35/35 50/58/57
f 44/51/51 24/30/30 50/58/57
f 25/52/52 51/59/58 26/46/46
f 39/50/50 44/51/51 43/49/49
f 17/60/59 24/30/30 44/51/51
f 44/51/51 39/50/50 52/61/60
f 44/51/51 52/61/60 17/60/59
f 53/62/61 39/50/50 32/48/48
f 49/56/56 54/63/62 55/53/53
f 47/54/54 49/56/56 132/64/63
f 132/64/63 55/53/53 133/65/64
f 132/64/63 134/66/65 47/54/54
f 41/44/44 27/67/66 40/68/67
f 16/31/31 17/60/59 52/61/60
f 52/61/60 53/62/61 16/31/31
f 56/69/68 32/48/48 31/45/45
f 26/46/46 57/70/69 27/67/66
f 27/67/66 58/71/70 40/68/67
f 59/72/71 31/45/45 30/41/41
f 60/73/72 30/41/41 29/43/43
f 54/63/62 60/73/72 29/43/43
f 48/55/55 61/74/73 54/63/62
f 46/75/74 62/76/75 48/55/55
f 64/77/76 46/75/74 47/54/54
f 144/78/77 47/54/54 134/66/65
f 67/2/2 95/79/78 99/80/79
f 68/5/5 96/81/80 95/79/78
f 79/82/81 69/83/82 78/84/83
f 96/81/80 79/82/81 78/84/83
f 77/85/84 69/83/82 65/86/85
f 76/87/86 65/86/85 66/88/87
f 98/89/88 79/82/81 97/90/89
f 71/91/90 74/92/91 73/93/92
f 66/88/87 80/94/93 81/95/94
f 71/91/90 82/96/95 69/83/82
f 73/93/92 83/97/96 71/91/90
f 69/83/82 80/94/93 65/86/85
f 110/98/97 88/22/22 87/29/29
f 112/99/98 85/25/25 86/34/34
f 109/100/99 89/27/27 88/22/22
f 111/101/100 87/29/29 85/25/25
f 76/87/86 100/102/101 99/80/79
f 81/95/94 90/103/102 66/88/87
f 86/34/34 114/104/103 112/99/98
f 76/87/86 90/103/102 92/105/104
f 99/80/79 91/35/35 67/2/2
f 72/36/36 98/89/88 97/90/89
f 70/38/38 97/90/89 96/81/80
f 95/79/78 78/84/83 77/85/84
f 99/80/79 77/85/84 76/87/86
f 112/99/98 93/106/105 81/95/94
f 80/94/93 110/98/97 111/101/100
f 83/97/96 113/107/106 109/100/99
f 81/95/94 111/101/100 112/99/98
f 82/96/95 109/100/99 110/98/97
f 104/108/107 106/109/108 105/110/109
f 106/109/108 117/111/110 107/112/111
f 102/113/112 117/111/110 103/114/113
f 107/112/111 118/115/114 108/116/115
f 108/116/115 119/117/116 115/118/117
f 119/117/116 101/119/118 120/120/119
f 119/117/116 102/113/112 101/119/118
f 131/121/120 105/110/109 130/122/121
f 123/123/122 124/124/123 122/125/124
f 101/126/118 91/35/35 126/127/125
f 120/120/119 101/119/118 126/127/125
f 100/102/101 126/127/125 91/35/35
f 120/120/119 126/127/125 100/102/101
f 101/119/118 127/128/126 126/129/125
f 115/118/117 119/117/116 120/120/119
f 92/105/104 120/120/119 100/102/101
f 120/120/119 128/130/127 115/118/117
f 120/120/119 92/105/104 128/130/127
f 129/131/128 115/118/117 128/130/127
f 125/132/129 130/122/121 124/124/123
f 123/123/122 132/64/63 125/132/129
f 131/121/120 132/64/63 133/65/64
f 132/64/63 123/123/122 134/66/65
f 117/111/110 116/133/130 103/114/113
f 90/103/102 128/130/127 92/105/104
f 128/130/127 90/103/102 129/131/128
f 135/134/131 108/116/115 129/131/128
f 136/135/132 102/113/112 103/114/113
f 137/136/133 103/114/113 116/133/130
f 138/137/134 107/112/111 135/134/131
f 139/138/135 106/109/108 138/137/134
f 130/122/121 139/138/135 140/139/136
f 124/124/123 140/139/136 141/140/137
f 122/125/124 141/140/137 142/141/138
f 122/125/124 143/142/139 123/123/122
f 123/123/122 144/78/77 134/66/65
f 19/1/1 68/5/5 67/2/2
f 20/4/4 70/38/38 68/5/5
f 3/6/6 4/16/16 10/7/7
f 20/4/4 9/8/8 10/7/7
f 3/6/6 9/8/8 8/10/10
f 1/11/11 8/10/10 7/12/12
f 10/7/7 6/15/15 22/14/14
f 6/15/15 10/7/7 4/16/16
f 2/13/13 12/32/32 11/18/18
f 13/19/19 14/20/20 4/16/16
f 14/20/20 15/40/40 5/17/17
f 11/18/18 13/19/19 3/6/6
f 34/21/21 87/29/29 88/22/22
f 36/24/24 86/34/34 85/25/25
f 33/23/23 88/22/22 89/27/27
f 35/26/26 85/25/25 87/29/29
f 24/30/30 17/60/59 7/12/12
f 16/31/31 18/39/39 12/32/32
f 38/33/33 94/143/140 86/34/34
f 7/12/12 17/60/59 16/31/31
f 91/35/35 24/30/30 23/3/3
f 72/36/36 21/9/9 22/14/14
f 70/38/38 20/4/4 21/9/9
f 9/8/8 20/4/4 19/1/1
f 8/10/10 19/1/1 23/3/3
f 18/39/39 38/33/33 36/24/24
f 11/18/18 35/26/26 34/21/21
f 14/20/20 33/23/23 37/28/28
f 12/32/32 36/24/24 35/26/26
f 13/19/19 34/21/21 33/23/23
f 30/41/41 40/68/67 28/42/42
f 41/44/44 40/68/67 30/41/41
f 26/46/46 27/67/66 41/44/44
f 42/47/47 41/44/44 31/45/45
f 43/49/49 42/47/47 32/48/48
f 26/46/46 42/47/47 43/49/49
f 55/53/53 54/63/62 29/43/43
f 47/54/54 46/75/74 48/55/55
f 25/52/52 50/144/57 51/59/58
f 53/62/61 52/61/60 39/50/50
f 49/56/56 48/55/55 54/63/62
f 132/64/63 49/56/56 55/53/53
f 56/69/68 53/62/61 32/48/48
f 26/46/46 51/59/58 57/70/69
f 27/67/66 57/70/69 58/71/70
f 59/72/71 56/69/68 31/45/45
f 60/73/72 59/72/71 30/41/41
f 54/63/62 61/74/73 60/73/72
f 48/55/55 62/76/75 61/74/73
f 46/75/74 63/145/141 62/76/75
f 64/77/76 63/145/141 46/75/74
f 144/78/77 64/77/76 47/54/54
f 67/2/2 68/5/5 95/79/78
f 68/5/5 70/38/38 96/81/80
f 79/82/81 71/91/90 69/83/82
f 96/81/80 97/90/89 79/82/81
f 77/85/84 78/84/83 69/83/82
f 76/87/86 77/85/84 65/86/85
f 98/89/88 74/92/91 79/82/81
f 71/91/90 79/82/81 74/92/91
f 66/88/87 65/86/85 80/94/93
f 71/91/90 83/97/96 82/96/95
f 73/93/92 84/146/142 83/97/96
f 69/83/82 82/96/95 80/94/93
f 110/98/97 109/100/99 88/22/22
f 112/99/98 111/101/100 85/25/25
f 109/100/99 113/107/106 89/27/27
f 111/101/100 110/98/97 87/29/29
f 76/87/86 92/105/104 100/102/101
f 81/95/94 93/106/105 90/103/102
f 86/34/34 94/143/140 114/104/103
f 76/87/86 66/88/87 90/103/102
f 99/80/79 100/102/101 91/35/35
f 72/36/36 75/37/37 98/89/88
f 70/38/38 72/36/36 97/90/89
f 95/79/78 96/81/80 78/84/83
f 99/80/79 95/79/78 77/85/84
f 112/99/98 114/104/103 93/106/105
f 80/94/93 82/96/95 110/98/97
f 83/97/96 84/146/142 113/107/106
f 81/95/94 80/94/93 111/101/100
f 82/96/95 83/97/96 109/100/99
f 104/108/107 116/133/130 106/109/108
f 106/109/108 116/133/130 117/111/110
f 102/113/112 118/115/114 117/111/110
f 107/112/111 117/111/110 118/115/114
f 108/116/115 118/115/114 119/117/116
f 119/117/116 118/115/114 102/113/112
f 131/121/120 104/108/107 105/110/109
f 123/123/122 125/132/129 124/124/123
f 101/119/118 102/113/112 127/128/126
f 129/131/128 108/116/115 115/118/117
f 125/132/129 131/121/120 130/122/121
f 131/121/120 125/132/129 132/64/63
f 135/134/131 107/112/111 108/116/115
f 136/135/132 127/128/126 102/113/112
f 137/136/133 136/135/132 103/114/113
f 138/137/134 106/109/108 107/112/111
f 139/138/135 105/110/109 106/109/108
f 130/122/121 105/110/109 139/138/135
f 124/124/123 130/122/121 140/139/136
f 122/125/124 124/124/123 141/140/137
f 122/125/124 142/141/138 143/142/139
f 123/123/122 143/142/139 144/78/77
