# Blender v2.79 (sub 0) OBJ File: 'shiggy - Copy.blend'
# www.blender.org
o Plane.003_Plane.006
v -1.259230 -2.503964 -0.620282
v -0.811563 -2.534193 -0.761619
v -2.378785 -4.171112 -0.657740
v -1.726480 -3.111481 -0.521738
v -1.590099 -2.679987 -0.225235
v -1.377216 -2.448892 -0.225235
v -1.054366 -2.205846 -0.225235
v -0.741783 -4.957922 -0.750358
v -0.787415 -4.568643 -0.521738
v -0.612537 -3.917469 -0.518188
v -0.712911 -3.854854 -0.225235
v -1.554106 -4.624967 -0.081319
v -1.220280 -3.943270 0.022480
v -1.266809 -3.354223 0.293544
v -1.557394 -4.488793 -1.540102
v -1.214369 -3.951811 -1.251831
v -1.262393 -3.363431 -1.189814
v -1.957772 -4.150900 -1.303603
v -1.541234 -3.529634 -1.078931
v -1.372144 -2.901552 -0.756382
v -2.069235 -4.435977 -0.255518
v -1.693632 -3.642657 -0.044799
v -1.516611 -3.008585 0.130436
v -1.006362 -4.971088 -0.180632
v -0.947449 -4.430436 -0.029704
v -1.060004 -3.865184 0.243799
v -1.056336 -4.624084 -1.248762
v -0.898925 -4.215910 -0.983951
v -1.006763 -3.654579 -1.146225
v -1.046945 -2.273040 -0.466218
v -1.199022 -2.795764 0.279380
v -0.528275 -2.583050 -0.714605
v -0.787282 -2.190660 -0.541650
v -0.946823 -2.390420 0.057914
v -1.124530 -3.227928 0.405258
v -0.761136 -2.038221 -0.225234
v -0.761136 -2.247391 0.113649
v -0.951278 -3.821203 0.394018
v -0.714895 -2.648057 0.621880
v 1.259230 -2.503964 -0.620282
v 0.811563 -2.534193 -0.761619
v 2.378785 -4.171112 -0.657740
v 1.726480 -3.111481 -0.521738
v 1.590099 -2.679987 -0.225235
v 1.377216 -2.448892 -0.225235
v 1.054366 -2.205846 -0.225235
v 0.741783 -4.957922 -0.750358
v 0.787415 -4.568643 -0.521738
v 0.612537 -3.917469 -0.518188
v 0.712911 -3.854854 -0.225235
v 1.554106 -4.624967 -0.081319
v 1.220280 -3.943270 0.022480
v 1.266809 -3.354223 0.293544
v 1.557394 -4.488793 -1.540102
v 1.214369 -3.951811 -1.251831
v 1.262393 -3.363431 -1.189814
v 1.957772 -4.150900 -1.303603
v 1.541234 -3.529634 -1.078931
v 1.372144 -2.901552 -0.756382
v 2.069235 -4.435977 -0.255518
v 1.693632 -3.642657 -0.044799
v 1.516611 -3.008585 0.130436
v 1.006362 -4.971088 -0.180632
v 0.947449 -4.430436 -0.029704
v 1.060004 -3.865184 0.243799
v 1.056336 -4.624084 -1.248762
v 0.898925 -4.215910 -0.983951
v 1.006763 -3.654579 -1.146225
v 1.046945 -2.273040 -0.466218
v 1.199022 -2.795764 0.279380
v 0.528275 -2.583050 -0.714605
v 0.787282 -2.190660 -0.541650
v 0.946823 -2.390420 0.057914
v 1.124530 -3.227928 0.405258
v 0.761136 -2.038221 -0.225234
v 0.761136 -2.247391 0.113649
v 0.951278 -3.821203 0.394018
v 0.714895 -2.648057 0.621880
vt 0.305749 0.306515
vt 0.265720 0.324453
vt 0.282392 0.256757
vt 0.000089 0.386810
vt 0.331731 0.082976
vt 0.449427 0.251503
vt 0.552282 0.111487
vt 0.612027 0.251429
vt 0.333537 0.300593
vt 0.358394 0.312494
vt 0.311226 0.349966
vt 0.299121 0.330424
vt 0.277833 0.378575
vt 0.389757 0.412040
vt 0.379638 0.459265
vt 0.324090 0.402793
vt 0.352625 0.357259
vt 0.332042 0.355566
vt 0.370458 0.335080
vt 0.500666 0.375123
vt 0.502997 0.479308
vt 0.622325 0.383695
vt 0.362607 0.186718
vt 0.315082 0.457437
vt 0.611465 0.542317
vt 0.741316 0.618429
vt 0.696916 0.438008
vt 0.821943 0.529863
vt 0.750853 0.219597
vt 0.527225 0.725440
vt 0.450343 0.789963
vt 0.736384 0.765679
vt 0.888231 0.388593
vt 0.629466 0.043820
vt 0.999911 0.417271
vt 0.957422 0.611666
vt 0.349422 0.000089
vt 0.999911 0.093821
vt 0.305749 0.306515
vt 0.265720 0.324453
vt 0.299121 0.330424
vt 0.282392 0.256757
vt 0.000089 0.386810
vt 0.449427 0.251503
vt 0.552282 0.111487
vt 0.362607 0.186718
vt 0.333537 0.300593
vt 0.358394 0.312494
vt 0.311226 0.349966
vt 0.277833 0.378575
vt 0.315082 0.457437
vt 0.389757 0.412040
vt 0.379638 0.459265
vt 0.502997 0.479308
vt 0.352625 0.357259
vt 0.324090 0.402793
vt 0.370458 0.335080
vt 0.500666 0.375123
vt 0.622325 0.383695
vt 0.612027 0.251429
vt 0.331731 0.082976
vt 0.332042 0.355566
vt 0.611465 0.542317
vt 0.696916 0.438008
vt 0.741316 0.618429
vt 0.821943 0.529863
vt 0.750853 0.219597
vt 0.527225 0.725440
vt 0.450343 0.789963
vt 0.736384 0.765679
vt 0.888231 0.388593
vt 0.629466 0.043820
vt 0.999911 0.417271
vt 0.957422 0.611666
vt 0.349422 0.000089
vt 0.999911 0.093821
vn 0.6593 -0.2461 0.7104
vn 0.9897 -0.1256 0.0687
vn 0.5249 -0.2435 0.8155
vn 0.9668 -0.1540 -0.2039
vn -0.4978 -0.3981 0.7705
vn -0.6522 0.0490 0.7565
vn -0.5650 -0.1716 0.8070
vn -0.7508 0.2089 0.6265
vn -0.1556 -0.1418 0.9776
vn -0.5648 0.0486 0.8238
vn 0.7777 0.1033 -0.6200
vn 0.9903 0.1348 -0.0319
vn 0.8412 -0.0517 -0.5382
vn -0.5065 0.4115 -0.7577
vn -0.1239 0.3353 -0.9339
vn 0.3037 0.1742 -0.9367
vn -0.3848 0.5701 -0.7259
vn 0.2158 0.3512 -0.9111
vn -0.8684 0.4784 0.1301
vn -0.8739 0.4516 -0.1801
vn -0.5619 0.5074 -0.6532
vn -0.8600 0.4987 0.1080
vn -0.4206 -0.2875 0.8605
vn 0.5827 0.0370 -0.8119
vn -0.5155 0.5795 -0.6311
vn -0.4519 0.7560 -0.4735
vn -0.6658 0.7263 0.1708
vn -0.5589 0.8116 0.1697
vn -0.5796 0.4053 0.7069
vn -0.0811 0.4540 -0.8873
vn 0.4343 0.1629 -0.8859
vn -0.3946 0.7109 -0.5821
vn -0.5568 0.6049 0.5693
vn -0.5576 0.0034 0.8301
vn -0.5677 0.6288 0.5313
vn -0.4710 0.8778 0.0869
vn -0.6731 -0.3104 0.6712
vn -0.6089 0.4666 0.6414
vn -0.6593 -0.2461 0.7104
vn -0.9897 -0.1256 0.0687
vn -0.9903 0.1348 -0.0319
vn -0.5249 -0.2435 0.8155
vn -0.9668 -0.1540 -0.2039
vn 0.6522 0.0490 0.7565
vn 0.5650 -0.1716 0.8070
vn 0.4206 -0.2875 0.8605
vn 0.1556 -0.1418 0.9776
vn 0.5648 0.0486 0.8238
vn -0.7777 0.1033 -0.6200
vn -0.8412 -0.0517 -0.5382
vn -0.5827 0.0370 -0.8119
vn 0.5065 0.4115 -0.7577
vn 0.1239 0.3353 -0.9339
vn 0.5619 0.5074 -0.6532
vn 0.3848 0.5701 -0.7259
vn -0.3037 0.1742 -0.9367
vn 0.8684 0.4784 0.1301
vn 0.8739 0.4516 -0.1801
vn 0.8600 0.4987 0.1080
vn 0.7508 0.2089 0.6265
vn 0.4978 -0.3981 0.7705
vn -0.2158 0.3512 -0.9111
vn 0.5155 0.5795 -0.6311
vn 0.6658 0.7263 0.1708
vn 0.4519 0.7560 -0.4735
vn 0.5589 0.8116 0.1697
vn 0.5796 0.4053 0.7069
vn 0.0811 0.4540 -0.8873
vn -0.4343 0.1629 -0.8859
vn 0.3946 0.7109 -0.5821
vn 0.5568 0.6049 0.5693
vn 0.5576 0.0034 0.8301
vn 0.5677 0.6288 0.5313
vn 0.4710 0.8778 0.0869
vn 0.6731 -0.3104 0.6712
vn 0.6089 0.4666 0.6414
s 1
f 24/1/1 9/2/2 25/3/3
f 25/3/3 10/4/4 26/5/5
f 22/6/6 14/7/7 23/8/8
f 12/9/9 22/6/6 21/10/10
f 27/11/11 9/2/2 8/12/12
f 28/13/13 10/4/4 9/2/2
f 19/14/14 17/15/15 16/16/16
f 18/17/17 16/16/16 15/18/18
f 3/19/19 19/14/14 18/17/17
f 4/20/20 20/21/21 19/14/14
f 3/19/19 22/6/6 4/20/20
f 4/20/20 23/8/8 5/22/22
f 13/23/23 26/5/5 14/7/7
f 12/9/9 25/3/3 13/23/23
f 16/16/16 29/24/24 28/13/13
f 16/16/16 27/11/11 15/18/18
f 5/22/22 1/25/25 20/21/21
f 30/26/26 6/27/27 7/28/28
f 5/22/22 31/29/29 6/27/27
f 2/30/30 20/21/21 1/25/25
f 17/15/15 2/30/30 29/24/24
f 29/24/24 32/31/31 10/4/4
f 2/30/30 30/26/26 33/32/32
f 6/27/27 34/33/33 7/28/28
f 35/34/34 23/8/8 14/7/7
f 37/35/35 7/28/28 34/33/33
f 7/28/28 36/36/36 30/26/26
f 38/37/37 14/7/7 26/5/5
f 34/33/33 31/29/29 39/38/38
f 37/35/35 34/33/33 39/38/38
f 35/34/34 39/38/38 31/29/29
f 33/32/32 30/26/26 36/36/36
f 63/39/39 48/40/40 47/41/41
f 64/42/42 49/43/43 48/40/40
f 61/44/44 53/45/45 52/46/46
f 61/44/44 51/47/47 60/48/48
f 66/49/49 48/40/40 67/50/50
f 67/50/50 49/43/43 68/51/51
f 58/52/52 56/53/53 59/54/54
f 57/55/55 55/56/56 58/52/52
f 42/57/57 58/52/52 43/58/58
f 43/58/58 59/54/54 44/59/59
f 42/57/57 61/44/44 60/48/48
f 43/58/58 62/60/60 61/44/44
f 52/46/46 65/61/61 64/42/42
f 51/47/47 64/42/42 63/39/39
f 55/56/56 68/51/51 56/53/53
f 66/49/49 55/56/56 54/62/62
f 44/59/59 40/63/63 45/64/64
f 45/64/64 69/65/65 46/66/66
f 70/67/67 44/59/59 45/64/64
f 41/68/68 59/54/54 56/53/53
f 56/53/53 68/51/51 41/68/68
f 71/69/69 68/51/51 49/43/43
f 69/65/65 41/68/68 72/70/70
f 73/71/71 45/64/64 46/66/66
f 62/60/60 74/72/72 53/45/45
f 46/66/66 76/73/73 73/71/71
f 46/66/66 69/65/65 75/74/74
f 53/45/45 77/75/75 65/61/61
f 73/71/71 78/76/76 70/67/67
f 76/73/73 78/76/76 73/71/71
f 74/72/72 70/67/67 78/76/76
f 72/70/70 75/74/74 69/65/65
f 24/1/1 8/12/12 9/2/2
f 25/3/3 9/2/2 10/4/4
f 22/6/6 13/23/23 14/7/7
f 12/9/9 13/23/23 22/6/6
f 27/11/11 28/13/13 9/2/2
f 28/13/13 29/24/24 10/4/4
f 19/14/14 20/21/21 17/15/15
f 18/17/17 19/14/14 16/16/16
f 3/19/19 4/20/20 19/14/14
f 4/20/20 5/22/22 20/21/21
f 3/19/19 21/10/10 22/6/6
f 4/20/20 22/6/6 23/8/8
f 13/23/23 25/3/3 26/5/5
f 12/9/9 24/1/1 25/3/3
f 16/16/16 17/15/15 29/24/24
f 16/16/16 28/13/13 27/11/11
f 5/22/22 6/27/27 1/25/25
f 30/26/26 1/25/25 6/27/27
f 5/22/22 23/8/8 31/29/29
f 2/30/30 17/15/15 20/21/21
f 29/24/24 2/30/30 32/31/31
f 2/30/30 1/25/25 30/26/26
f 6/27/27 31/29/29 34/33/33
f 35/34/34 31/29/29 23/8/8
f 37/35/35 36/36/36 7/28/28
f 38/37/37 35/34/34 14/7/7
f 63/39/39 64/42/42 48/40/40
f 64/42/42 65/61/61 49/43/43
f 61/44/44 62/60/60 53/45/45
f 61/44/44 52/46/46 51/47/47
f 66/49/49 47/41/41 48/40/40
f 67/50/50 48/40/40 49/43/43
f 58/52/52 55/56/56 56/53/53
f 57/55/55 54/62/62 55/56/56
f 42/57/57 57/55/55 58/52/52
f 43/58/58 58/52/52 59/54/54
f 42/57/57 43/58/58 61/44/44
f 43/58/58 44/59/59 62/60/60
f 52/46/46 53/45/45 65/61/61
f 51/47/47 52/46/46 64/42/42
f 55/56/56 67/50/50 68/51/51
f 66/49/49 67/50/50 55/56/56
f 44/59/59 59/54/54 40/63/63
f 45/64/64 40/63/63 69/65/65
f 70/67/67 62/60/60 44/59/59
f 41/68/68 40/63/63 59/54/54
f 71/69/69 41/68/68 68/51/51
f 69/65/65 40/63/63 41/68/68
f 73/71/71 70/67/67 45/64/64
f 62/60/60 70/67/67 74/72/72
f 46/66/66 75/74/74 76/73/73
f 53/45/45 74/72/72 77/75/75
